<svg xmlns="http://www.w3.org/2000/svg" xmlns:xlink="http://www.w3.org/1999/xlink" viewBox="0 0 1440 900"><defs><style>.cls-1{fill:#e6e6e6;}.cls-2{fill:#0e7369;}.cls-3{fill:url(#radial-gradient);}</style><radialGradient id="radial-gradient" cx="720.26" cy="449.78" r="155.12" gradientUnits="userSpaceOnUse"><stop offset="0" stop-color="#0e8c71"/><stop offset="1" stop-color="#0e5252"/></radialGradient></defs><title>AuroraNbg. Artboard 1</title><g id="Layer_1" data-name="Layer 1"><circle class="cls-1" cx="720" cy="450" r="175.61"/><path class="cls-2" d="M647.4,456.1a3.49,3.49,0,0,1,3.35,1.6l5.69,9a3.47,3.47,0,0,0,6.29-1l42.57-164a5,5,0,0,0-5.48-6.23A155.5,155.5,0,0,0,564.08,449.78c0,3.39.11,6.76.33,10.09a5,5,0,0,0,5.53,4.63Z"/><path class="cls-2" d="M796.69,471.45a3.46,3.46,0,0,1-3.34-1.85l-5.93-11.37A3.47,3.47,0,0,0,781,459L744.85,596a5,5,0,0,0,5.84,6.18,155.6,155.6,0,0,0,122.8-130.38,5,5,0,0,0-5.33-5.72Z"/><path class="cls-3" d="M717,493.33a3.47,3.47,0,0,1,3.42-4.06h27.19a3.46,3.46,0,0,1,3.41,2.82l1.59,8.36a3.47,3.47,0,0,0,6.76.27l19.56-72a3.48,3.48,0,0,1,6.5-.56l14.38,30.66a3.47,3.47,0,0,0,2.93,2l66.64,4.07a5,5,0,0,0,5.3-4.65q.36-5.2.36-10.49A155.49,155.49,0,0,0,719.56,294.3h-.06a5,5,0,0,0-4.88,5.93l31.56,166.35a3.47,3.47,0,0,1-3.41,4.12H691.12a3.48,3.48,0,0,1-3.48-3.47V450a3.47,3.47,0,0,1,3.48-3.47h5.22a10.54,10.54,0,0,0,10.39-12.32l-7.07-41.35a3.47,3.47,0,0,0-6.79-.28L665,500.31a3.47,3.47,0,0,1-6.51.6l-13.61-29.27a3.48,3.48,0,0,0-2.93-2l-71.16-4.13a5,5,0,0,0-5.25,5.64,155.51,155.51,0,0,0,154,134.11c3.74,0,7.45-.14,11.13-.4a5,5,0,0,0,4.53-5.84Z"/></g></svg>